ffmpeg started on 2025-06-19 at 09:51:12
Report written to "D:\Convert\FFMetrics\reports\psnr_report-6.txt"
Log level: 32
Command line:
ffmpeg -hide_banner -nostdin -i "G:\\\xc0\xed\xe8\xec\xe5\\[\xd2\xee\xef-4]\\Fate\\\xc4\xee\xef\xee\xeb\xed\xe5\xed\xe8\xe5 - \xcf\xee\xf1\xeb\xe5\xe4\xed\xe8\xe9 \xe2\xfb\xe7\xee\xe2 \xed\xe0 \xe1\xe8\xf1\\Fate_Extra_Last_Encore_[11]_[AniLibria_TV]_[HDTV-Rip_720p]_HEVC.mkv" -i "G:\\\xc0\xed\xe8\xec\xe5\\[\xd2\xee\xef-4]\\Fate\\\xc4\xee\xef\xee\xeb\xed\xe5\xed\xe8\xe5 - \xcf\xee\xf1\xeb\xe5\xe4\xed\xe8\xe9 \xe2\xfb\xe7\xee\xe2 \xed\xe0 \xe1\xe8\xf1\\Fate_Extra_Last_Encore_[11]_[AniLibria_TV]_[HDTV-Rip_720p].mkv" -lavfi "[0:v]settb=AVTB,setpts=PTS-STARTPTS,format=pix_fmts=yuv420p10,fps=24000/1001,scale=1280:720:flags=bicubic[main];[1:v]settb=AVTB,setpts=PTS-STARTPTS,format=pix_fmts=yuv420p,fps=24000/1001,scale=1280:720:flags=bicubic[ref];[main][ref]psnr=eof_action=endall:stats_file='D\\:/Convert/FFMetrics/logs/psnr_logfile-6.txt'" -f null -
Input #0, matroska,webm, from 'G:\Аниме\[Топ-4]\Fate\Дополнение - Последний вызов на бис\Fate_Extra_Last_Encore_[11]_[AniLibria_TV]_[HDTV-Rip_720p]_HEVC.mkv':
  Metadata:
    ENCODER         : Lavf61.7.100
  Duration: 00:25:30.13, start: -0.021000, bitrate: 1202 kb/s
  Stream #0:0(jpn): Video: hevc (Main 10), yuv420p10le(tv, bt709, progressive), 1280x720 [SAR 1:1 DAR 16:9], 23.98 fps, 23.98 tbr, 1k tbn (default)
      Metadata:
        ENCODER         : Lavc61.19.100 libx265
        BPS             : 1004755
        DURATION        : 00:25:30.028708333
        NUMBER_OF_FRAMES: 36684
        NUMBER_OF_BYTES : 192162941
        _STATISTICS_WRITING_APP: mkvpropedit v66.0.0 ('Josie') 64-bit
        _STATISTICS_WRITING_DATE_UTC: 2025-06-17 13:35:51
        _STATISTICS_TAGS: BPS DURATION NUMBER_OF_FRAMES NUMBER_OF_BYTES
  Stream #0:1(rus): Audio: aac (LC), 48000 Hz, stereo, fltp (default) (forced)
      Metadata:
        title           : Ados Amikiri Anzen Hekomi Silv
        ENCODER         : Lavc61.19.100 aac
        BPS             : 193636
        DURATION        : 00:25:30.112000000
        NUMBER_OF_FRAMES: 71725
        NUMBER_OF_BYTES : 37035614
        _STATISTICS_WRITING_APP: mkvpropedit v66.0.0 ('Josie') 64-bit
        _STATISTICS_WRITING_DATE_UTC: 2025-06-17 13:35:51
        _STATISTICS_TAGS: BPS DURATION NUMBER_OF_FRAMES NUMBER_OF_BYTES
  Stream #0:2(rus): Subtitle: ass (ssa)
      Metadata:
        title           : Полные
        BPS             : 109
        DURATION        : 00:23:44.050000000
        NUMBER_OF_FRAMES: 186
        NUMBER_OF_BYTES : 19489
        _STATISTICS_WRITING_APP: mkvpropedit v66.0.0 ('Josie') 64-bit
        _STATISTICS_WRITING_DATE_UTC: 2025-06-17 13:35:51
        _STATISTICS_TAGS: BPS DURATION NUMBER_OF_FRAMES NUMBER_OF_BYTES
Input #1, matroska,webm, from 'G:\Аниме\[Топ-4]\Fate\Дополнение - Последний вызов на бис\Fate_Extra_Last_Encore_[11]_[AniLibria_TV]_[HDTV-Rip_720p].mkv':
  Metadata:
    encoder         : libebml v1.4.2 + libmatroska v1.6.4
    creation_time   : 2024-12-27T10:00:09.000000Z
  Duration: 00:25:30.11, start: 0.000000, bitrate: 2577 kb/s
  Stream #1:0(jpn): Video: h264 (Main), yuv420p(tv, bt709, progressive), 1280x720, SAR 1:1 DAR 16:9, 23.98 fps, 23.98 tbr, 1k tbn (default)
      Metadata:
        BPS             : 2382508
        DURATION        : 00:25:30.029000000
        NUMBER_OF_FRAMES: 36684
        NUMBER_OF_BYTES : 455663453
        _STATISTICS_WRITING_APP: mkvmerge v66.0.0 ('Josie') 64-bit
        _STATISTICS_WRITING_DATE_UTC: 2024-12-27 10:00:09
        _STATISTICS_TAGS: BPS DURATION NUMBER_OF_FRAMES NUMBER_OF_BYTES
  Stream #1:1(rus): Audio: aac (LC), 48000 Hz, stereo, fltp (default) (forced)
      Metadata:
        title           : Ados Amikiri Anzen Hekomi Silv
        BPS             : 192092
        DURATION        : 00:25:30.112000000
        NUMBER_OF_FRAMES: 71724
        NUMBER_OF_BYTES : 36740330
        _STATISTICS_WRITING_APP: mkvmerge v66.0.0 ('Josie') 64-bit
        _STATISTICS_WRITING_DATE_UTC: 2024-12-27 10:00:09
        _STATISTICS_TAGS: BPS DURATION NUMBER_OF_FRAMES NUMBER_OF_BYTES
  Stream #1:2(rus): Subtitle: ass (ssa)
      Metadata:
        title           : Полные
        BPS             : 109
        DURATION        : 00:23:44.050000000
        NUMBER_OF_FRAMES: 186
        NUMBER_OF_BYTES : 19489
        _STATISTICS_WRITING_APP: mkvmerge v66.0.0 ('Josie') 64-bit
        _STATISTICS_WRITING_DATE_UTC: 2024-12-27 10:00:09
        _STATISTICS_TAGS: BPS DURATION NUMBER_OF_FRAMES NUMBER_OF_BYTES
Stream mapping:
  Stream #0:0 (hevc) -> settb:default
  Stream #1:0 (h264) -> settb:default
  psnr:default -> Stream #0:0 (wrapped_avframe)
  Stream #0:1 -> #0:1 (aac (native) -> pcm_s16le (native))
Output #0, null, to 'pipe:':
  Metadata:
    encoder         : Lavf61.7.100
  Stream #0:0: Video: wrapped_avframe, yuv420p10le(tv, bt709, progressive), 1280x720 [SAR 1:1 DAR 16:9], q=2-31, 200 kb/s, 23.98 fps, 23.98 tbn
      Metadata:
        encoder         : Lavc61.19.100 wrapped_avframe
  Stream #0:1(rus): Audio: pcm_s16le, 48000 Hz, stereo, s16, 1536 kb/s (default) (forced)
      Metadata:
        title           : Ados Amikiri Anzen Hekomi Silv
        _STATISTICS_TAGS: BPS DURATION NUMBER_OF_FRAMES NUMBER_OF_BYTES
        BPS             : 193636
        DURATION        : 00:25:30.112000000
        NUMBER_OF_FRAMES: 71725
        NUMBER_OF_BYTES : 37035614
        _STATISTICS_WRITING_APP: mkvpropedit v66.0.0 ('Josie') 64-bit
        _STATISTICS_WRITING_DATE_UTC: 2025-06-17 13:35:51
        encoder         : Lavc61.19.100 pcm_s16le
frame=  465 fps=0.0 q=-0.0 size=N/A time=00:00:19.39 bitrate=N/A speed=37.9x    frame=  967 fps=931 q=-0.0 size=N/A time=00:00:40.33 bitrate=N/A speed=38.8x    frame= 1566 fps=1012 q=-0.0 size=N/A time=00:01:05.31 bitrate=N/A speed=42.2x    frame= 1885 fps=916 q=-0.0 size=N/A time=00:01:18.62 bitrate=N/A speed=38.2x    frame= 2151 fps=832 q=-0.0 size=N/A time=00:01:29.71 bitrate=N/A speed=34.7x    frame= 2426 fps=784 q=-0.0 size=N/A time=00:01:41.18 bitrate=N/A speed=32.7x    frame= 2657 fps=737 q=-0.0 size=N/A time=00:01:50.81 bitrate=N/A speed=30.7x    frame= 2891 fps=700 q=-0.0 size=N/A time=00:02:00.57 bitrate=N/A speed=29.2x    frame= 3098 fps=667 q=-0.0 size=N/A time=00:02:09.21 bitrate=N/A speed=27.8x    frame= 3274 fps=635 q=-0.0 size=N/A time=00:02:16.55 bitrate=N/A speed=26.5x    frame= 3514 fps=619 q=-0.0 size=N/A time=00:02:26.56 bitrate=N/A speed=25.8x    frame= 3999 fps=646 q=-0.0 size=N/A time=00:02:46.79 bitrate=N/A speed=  27x    frame= 4529 fps=676 q=-0.0 size=N/A time=00:03:08.89 bitrate=N/A speed=28.2x    frame= 5014 fps=694 q=-0.0 size=N/A time=00:03:29.12 bitrate=N/A speed=28.9x    frame= 5434 fps=703 q=-0.0 size=N/A time=00:03:46.64 bitrate=N/A speed=29.3x    frame= 5877 fps=712 q=-0.0 size=N/A time=00:04:05.11 bitrate=N/A speed=29.7x    frame= 6457 fps=736 q=-0.0 size=N/A time=00:04:29.31 bitrate=N/A speed=30.7x    frame= 6907 fps=744 q=-0.0 size=N/A time=00:04:48.07 bitrate=N/A speed=  31x    frame= 7422 fps=758 q=-0.0 size=N/A time=00:05:09.55 bitrate=N/A speed=31.6x    frame= 7971 fps=773 q=-0.0 size=N/A time=00:05:32.45 bitrate=N/A speed=32.2x    frame= 8389 fps=775 q=-0.0 size=N/A time=00:05:49.89 bitrate=N/A speed=32.3x    frame= 8805 fps=776 q=-0.0 size=N/A time=00:06:07.24 bitrate=N/A speed=32.4x    frame= 9280 fps=783 q=-0.0 size=N/A time=00:06:27.05 bitrate=N/A speed=32.6x    frame= 9773 fps=789 q=-0.0 size=N/A time=00:06:47.61 bitrate=N/A speed=32.9x    frame=10335 fps=802 q=-0.0 size=N/A time=00:07:11.05 bitrate=N/A speed=33.4x    frame=10864 fps=810 q=-0.0 size=N/A time=00:07:33.11 bitrate=N/A speed=33.8x    frame=11338 fps=814 q=-0.0 size=N/A time=00:07:52.88 bitrate=N/A speed=  34x    frame=11822 fps=819 q=-0.0 size=N/A time=00:08:13.07 bitrate=N/A speed=34.2x    frame=12364 fps=826 q=-0.0 size=N/A time=00:08:35.68 bitrate=N/A speed=34.5x    frame=12886 fps=833 q=-0.0 size=N/A time=00:08:57.45 bitrate=N/A speed=34.8x    frame=13299 fps=832 q=-0.0 size=N/A time=00:09:14.67 bitrate=N/A speed=34.7x    frame=13589 fps=824 q=-0.0 size=N/A time=00:09:26.77 bitrate=N/A speed=34.3x    frame=14035 fps=824 q=-0.0 size=N/A time=00:09:45.37 bitrate=N/A speed=34.4x    frame=14458 fps=825 q=-0.0 size=N/A time=00:10:03.01 bitrate=N/A speed=34.4x    frame=14968 fps=829 q=-0.0 size=N/A time=00:10:24.29 bitrate=N/A speed=34.6x    frame=15488 fps=834 q=-0.0 size=N/A time=00:10:45.97 bitrate=N/A speed=34.8x    frame=15908 fps=834 q=-0.0 size=N/A time=00:11:03.49 bitrate=N/A speed=34.8x    frame=16442 fps=839 q=-0.0 size=N/A time=00:11:25.76 bitrate=N/A speed=  35x    frame=16941 fps=843 q=-0.0 size=N/A time=00:11:46.58 bitrate=N/A speed=35.1x    frame=17528 fps=850 q=-0.0 size=N/A time=00:12:11.06 bitrate=N/A speed=35.4x    frame=18035 fps=853 q=-0.0 size=N/A time=00:12:32.20 bitrate=N/A speed=35.6x    frame=18355 fps=847 q=-0.0 size=N/A time=00:12:45.55 bitrate=N/A speed=35.3x    frame=18803 fps=848 q=-0.0 size=N/A time=00:13:04.24 bitrate=N/A speed=35.4x    frame=19400 fps=855 q=-0.0 size=N/A time=00:13:29.14 bitrate=N/A speed=35.7x    frame=19949 fps=860 q=-0.0 size=N/A time=00:13:52.03 bitrate=N/A speed=35.9x    frame=20487 fps=863 q=-0.0 size=N/A time=00:14:14.47 bitrate=N/A speed=  36x    frame=20934 fps=864 q=-0.0 size=N/A time=00:14:33.12 bitrate=N/A speed=  36x    frame=21131 fps=854 q=-0.0 size=N/A time=00:14:41.33 bitrate=N/A speed=35.6x    frame=21350 fps=845 q=-0.0 size=N/A time=00:14:50.47 bitrate=N/A speed=35.3x    frame=21898 fps=849 q=-0.0 size=N/A time=00:15:13.32 bitrate=N/A speed=35.4x    frame=22397 fps=852 q=-0.0 size=N/A time=00:15:34.14 bitrate=N/A speed=35.5x    frame=22875 fps=853 q=-0.0 size=N/A time=00:15:54.07 bitrate=N/A speed=35.6x    frame=23354 fps=855 q=-0.0 size=N/A time=00:16:14.05 bitrate=N/A speed=35.6x    frame=23709 fps=852 q=-0.0 size=N/A time=00:16:28.86 bitrate=N/A speed=35.5x    frame=24148 fps=851 q=-0.0 size=N/A time=00:16:47.17 bitrate=N/A speed=35.5x    frame=24624 fps=853 q=-0.0 size=N/A time=00:17:07.02 bitrate=N/A speed=35.6x    frame=25124 fps=855 q=-0.0 size=N/A time=00:17:27.88 bitrate=N/A speed=35.7x    frame=25670 fps=858 q=-0.0 size=N/A time=00:17:50.65 bitrate=N/A speed=35.8x    frame=26165 fps=860 q=-0.0 size=N/A time=00:18:11.29 bitrate=N/A speed=35.9x    frame=26640 fps=861 q=-0.0 size=N/A time=00:18:31.11 bitrate=N/A speed=35.9x    frame=27115 fps=862 q=-0.0 size=N/A time=00:18:50.92 bitrate=N/A speed=  36x    frame=27576 fps=862 q=-0.0 size=N/A time=00:19:10.14 bitrate=N/A speed=  36x    frame=28079 fps=864 q=-0.0 size=N/A time=00:19:31.12 bitrate=N/A speed=36.1x    frame=28535 fps=865 q=-0.0 size=N/A time=00:19:50.14 bitrate=N/A speed=36.1x    frame=28898 fps=862 q=-0.0 size=N/A time=00:20:05.28 bitrate=N/A speed=  36x    frame=29260 fps=860 q=-0.0 size=N/A time=00:20:20.38 bitrate=N/A speed=35.9x    frame=29612 fps=857 q=-0.0 size=N/A time=00:20:35.06 bitrate=N/A speed=35.7x    frame=30034 fps=857 q=-0.0 size=N/A time=00:20:52.66 bitrate=N/A speed=35.7x    frame=30402 fps=854 q=-0.0 size=N/A time=00:21:08.01 bitrate=N/A speed=35.6x    frame=30914 fps=857 q=-0.0 size=N/A time=00:21:29.37 bitrate=N/A speed=35.7x    frame=31402 fps=858 q=-0.0 size=N/A time=00:21:49.72 bitrate=N/A speed=35.8x    frame=31675 fps=853 q=-0.0 size=N/A time=00:22:01.11 bitrate=N/A speed=35.6x    frame=31950 fps=849 q=-0.0 size=N/A time=00:22:12.58 bitrate=N/A speed=35.4x    frame=32370 fps=848 q=-0.0 size=N/A time=00:22:30.09 bitrate=N/A speed=35.4x    frame=32740 fps=846 q=-0.0 size=N/A time=00:22:45.53 bitrate=N/A speed=35.3x    frame=33102 fps=845 q=-0.0 size=N/A time=00:23:00.62 bitrate=N/A speed=35.2x    frame=33596 fps=846 q=-0.0 size=N/A time=00:23:21.23 bitrate=N/A speed=35.3x    frame=33973 fps=845 q=-0.0 size=N/A time=00:23:36.95 bitrate=N/A speed=35.2x    frame=34347 fps=843 q=-0.0 size=N/A time=00:23:52.55 bitrate=N/A speed=35.2x    frame=34591 fps=839 q=-0.0 size=N/A time=00:24:02.73 bitrate=N/A speed=  35x    frame=34875 fps=835 q=-0.0 size=N/A time=00:24:14.57 bitrate=N/A speed=34.8x    frame=35183 fps=832 q=-0.0 size=N/A time=00:24:27.42 bitrate=N/A speed=34.7x    frame=35464 fps=828 q=-0.0 size=N/A time=00:24:39.14 bitrate=N/A speed=34.6x    frame=35705 fps=824 q=-0.0 size=N/A time=00:24:49.19 bitrate=N/A speed=34.4x    frame=36030 fps=822 q=-0.0 size=N/A time=00:25:02.75 bitrate=N/A speed=34.3x    frame=36447 fps=822 q=-0.0 size=N/A time=00:25:20.14 bitrate=N/A speed=34.3x    [Parsed_psnr_10 @ 0000024cc97c4c80] PSNR y:45.425272 u:46.591072 v:46.744582 average:45.801108 min:36.617108 max:63.041100
[out#0/null @ 0000024cbd704480] video:15763KiB audio:286900KiB subtitle:0KiB other streams:0KiB global headers:0KiB muxing overhead: unknown
frame=36684 fps=824 q=-0.0 Lsize=N/A time=00:25:30.02 bitrate=N/A speed=34.4x    
